<svg width="115" height="51" fill="none" xmlns="http://www.w3.org/2000/svg"><path fill-rule="evenodd" clip-rule="evenodd" d="M0 15.943v7.973h23.456c2.726 0 6.21-2.507 6.21-6.654 0-1.667.641-2.755-1.33-4.961l-3-3.535c-1.72-1.595.205-1.595 1.649-1.595h9.903v16.745h7.854V7.171h10.585V0H21.05c-4.17 0-6.21 3.982-6.095 6.055.116 2.073.5 4.681 3.965 7.814 3.161 2.858-1.565 2.074-2.04 2.074H0ZM72.694 0h-12.67L52.92 23.917h7.905l1.282-3.35h8.34l1.238 3.35h7.742L72.695 0Zm-8.821 14.826 2.726-8.771 2.567 8.771h-5.293Zm40.576 1.117c-3.047 0-3.047-1.117-3.047-1.117 2.611 0 4.926-3.782 4.926-7.655S102.524 0 99.476 0H82.43v23.917h8.661v-7.974s3.689 4.306 5.613 6.06c1.925 1.754 2.085 1.914 4.697 1.914h13.596v-7.974h-10.548Zm-7.86-5.582h-5.496V6.055h5.497c2.52 0 2.956 4.306 0 4.306ZM0 26.946h8.861l2.245 7.975 2.085-7.975h9.303l2.405 7.975 2.406-7.975h7.699l-7.058 23.922H20.89l-3.092-11.323-3.484 11.323H7.097L0 26.946Zm53.19.138H40.518L33.417 51h7.904l1.283-3.348h8.34L52.182 51h7.744l-6.737-23.916ZM44.368 41.91l2.726-8.772 2.566 8.772h-5.292Zm60.24-7.787c-1.442 0-3.015.168-1.295 1.762l3 3.535c1.971 2.207 1.94 3.126 1.94 4.795 0 4.146-4.126 6.653-6.852 6.653l-18.951.127c-2.611 0-2.77-.159-4.696-1.913-1.924-1.754-5.613-6.06-5.613-6.06v7.973h-8.66V27.079h17.046c3.047 0 6.851 3.299 6.851 7.171 0 3.873-2.315 7.655-4.927 7.655 0 0 1.149 1.149 3.073 1.149 1.925 0 9.336.007 9.336.007.474 0 5.199.784 2.039-2.073-3.466-3.133-3.85-5.74-3.965-7.813-.115-2.073 1.688-6.228 5.856-6.228H115v7.177h-10.391Zm-26.97 3.316h-5.498v-4.306h5.499c2.52 0 2.956 4.306 0 4.306Z" fill="#000"/></svg>